<svg xmlns="http://www.w3.org/2000/svg" xmlns:xlink="http://www.w3.org/1999/xlink" width="2000" zoomAndPan="magnify" viewBox="0 0 1500 1499.999933" height="2000" preserveAspectRatio="xMidYMid meet" version="1.0"><defs><clipPath id="314abef683"><path d="M 200.453125 201.453125 L 1299.203125 201.453125 L 1299.203125 1298.703125 L 200.453125 1298.703125 Z M 200.453125 201.453125 " clip-rule="nonzero"/></clipPath></defs><rect x="-150" width="1800" fill="#ffffff" y="-149.999993" height="1799.99992" fill-opacity="1"/><rect x="-150" width="1800" fill="#ffffff" y="-149.999993" height="1799.99992" fill-opacity="1"/><g clip-path="url(#314abef683)"><path fill="#ffffff" d="M 200.574219 201.453125 L 1299.078125 201.453125 L 1299.078125 1298.726562 L 200.574219 1298.726562 Z M 200.574219 201.453125 " fill-opacity="1" fill-rule="nonzero"/></g><path fill="#000000" d="M 969.089844 750.085938 L 969.089844 969.453125 L 1188.351562 969.453125 L 1188.351562 1188.816406 L 969.089844 1188.816406 L 969.089844 969.453125 L 749.828125 969.453125 L 749.828125 530.722656 L 530.570312 530.722656 L 530.570312 1188.816406 L 311.300781 1188.816406 L 311.300781 530.722656 L 530.566406 530.722656 L 530.566406 311.359375 L 749.828125 311.359375 L 749.828125 530.722656 L 969.089844 530.722656 L 969.089844 311.359375 L 1188.351562 311.359375 L 1188.351562 530.722656 L 969.089844 530.722656 Z M 969.089844 750.085938 " fill-opacity="1" fill-rule="nonzero"/></svg>