<svg xmlns="http://www.w3.org/2000/svg" xmlns:xlink="http://www.w3.org/1999/xlink" viewBox="0 0 100 125" version="1.1" x="0px" y="0px"><title>Happy Copy</title><desc>Created with Sketch.</desc><g stroke="none" stroke-width="1" fill="none" fill-rule="evenodd"><g fill="#000000"><g transform="translate(61.811748, 51.640062) rotate(-345.000000) translate(-61.811748, -51.640062) translate(49.311748, 31.640062)"><path d="M16,19.2928932 L16,0 L0,20 L8.77525513,20 L8.77525513,39.2928932 L24.7752551,19.2928932 L16,19.2928932 Z"/></g><path d="M50.5,37 L28.4772845,37 C27.6488573,37 26.9772845,37.6715729 26.9772845,38.5 C26.9772845,39.3284271 27.6488573,40 28.4772845,40 L50.5,40 C51.3284271,40 52,39.3284271 52,38.5 C52,37.6715729 51.3284271,37 50.5,37 Z" fill-rule="nonzero"/><path d="M50.5,61 L28.4772845,61 C27.6488573,61 26.9772845,61.6715729 26.9772845,62.5 C26.9772845,63.3284271 27.6488573,64 28.4772845,64 L50.5,64 C51.3284271,64 52,63.3284271 52,62.5 C52,61.6715729 51.3284271,61 50.5,61 Z" fill-rule="nonzero"/><path d="M40.5,49 L18.4772845,49 C17.6488573,49 16.9772845,49.6715729 16.9772845,50.5 C16.9772845,51.3284271 17.6488573,52 18.4772845,52 L40.5,52 C41.3284271,52 42,51.3284271 42,50.5 C42,49.6715729 41.3284271,49 40.5,49 Z" fill-rule="nonzero"/></g></g><text x="0" y="115" fill="#000000" font-size="5px" font-weight="bold" font-family="'Helvetica Neue', Helvetica, Arial-Unicode, Arial, Sans-serif">Created by Joshua Swattridge</text><text x="0" y="120" fill="#000000" font-size="5px" font-weight="bold" font-family="'Helvetica Neue', Helvetica, Arial-Unicode, Arial, Sans-serif">from the Noun Project</text></svg>